<?xml version="1.0" encoding="utf-8"?>
<!-- Generator: Adobe Illustrator 15.0.0, SVG Export Plug-In . SVG Version: 6.00 Build 0)  -->
<!DOCTYPE svg PUBLIC "-//W3C//DTD SVG 1.1//EN" "http://www.w3.org/Graphics/SVG/1.1/DTD/svg11.dtd">
<svg version="1.1" id="Lager_1" xmlns="http://www.w3.org/2000/svg" xmlns:xlink="http://www.w3.org/1999/xlink" x="0px" y="0px"
	 width="435.63px" height="59.715px" viewBox="0 0 435.63 59.715" enable-background="new 0 0 435.63 59.715" xml:space="preserve">
<path fill="#00A0E2" d="M17.725,59.715c-14.96,0-17.76-8.8-17.119-18.8h12.08c0,5.52,0.239,10.16,6.879,10.16
	c4.08,0,6.08-2.641,6.08-6.561c0-10.399-24.32-11.04-24.32-28.239c0-9.04,4.32-16.24,19.041-16.24c11.76,0,17.6,5.279,16.8,17.359
	H25.404c0-4.319-0.719-8.72-5.6-8.72c-3.92,0-6.24,2.16-6.24,6.16c0,10.96,24.32,10,24.32,28.16
	C37.885,57.955,26.925,59.715,17.725,59.715z"/>
<path fill="#00A0E2" d="M58.686,9.875h6.079c5.44,0,6.72,4,6.72,8.72c0,3.84-2.479,7.76-6.08,7.76h-6.719V9.875z M46.605,58.755
	h12.08v-23.52h8.959c14.16,0,16.08-10.4,16.08-16.96c0-10.561-4.32-17.28-15.359-17.28h-21.76V58.755z"/>
<path fill="#00A0E2" d="M103.165,9.875h6.079c5.44,0,6.721,4,6.721,8.72c0,3.84-2.48,7.76-6.08,7.76h-6.72V9.875z M91.085,58.755
	h12.08v-23.52h8.96c14.16,0,16.08-10.4,16.08-16.96c0-10.561-4.32-17.28-15.36-17.28h-21.76V58.755z"/>
<path fill="#00A0E2" d="M134.925,29.875c0-15.28,0-29.84,19.92-29.84c12.319,0,17.28,6.8,16.8,19.2h-11.84
	c0-7.681-1.359-10.561-4.96-10.561c-6.8,0-7.68,6.4-7.68,21.2s0.88,21.2,7.68,21.2c5.601,0,5.36-7.2,5.521-11.761h11.92
	c0,15.44-6.16,20.4-17.44,20.4C134.925,59.715,134.925,44.995,134.925,29.875z"/>
<path fill="#778186" d="M184.195,15.656v0.63c0,2.94,1.86,3.87,3.631,3.87c2.189,0,3.869-0.93,3.869-3.51
	c0-4.8-9.72-4.26-9.72-10.771c0-3.84,2.729-5.88,6.36-5.88c3.959,0,6.18,1.92,6,6.33h-2.881c0.03-2.37-0.72-3.93-3.33-3.93
	c-1.649,0-3.33,0.84-3.33,3.18c0,4.771,9.721,4.08,9.721,10.95c0,4.561-3.15,6.03-6.721,6.03c-6.389,0.06-6.389-4.83-6.33-6.9
	H184.195z"/>
<path fill="#778186" d="M210.326,0.446v2.4h-5.701v19.26h-2.76V2.847h-5.699v-2.4H210.326z"/>
<path fill="#778186" d="M212.19,22.106h-2.82v-3.12h2.82V22.106z"/>
<path fill="#778186" d="M225.119,2.847h3.811c0.6,0,3.06,0.33,3.06,3.63c0,3.39-2.7,3.689-3.84,3.689h-3.03V2.847z M225.119,22.106
	v-9.54h3.631c2.219,0,6.06-1.021,6.06-5.94c0-5.1-3.12-6.18-6.03-6.18h-6.42v21.66H225.119z"/>
<path fill="#778186" d="M238.079,22.106V0.446h11.16v2.4h-8.399v6.96h7.799v2.399h-7.799v7.5h8.58v2.4H238.079z"/>
<path fill="#778186" d="M264.629,0.446v2.4h-5.699v19.26h-2.76V2.847h-5.701v-2.4H264.629z"/>
<path fill="#778186" d="M266.879,22.106V0.446h11.16v2.4h-8.4v6.96h7.801v2.399h-7.801v7.5h8.58v2.4H266.879z"/>
<path fill="#778186" d="M283.979,2.847h4.17c2.13,0,2.91,1.739,2.91,3.3c0,1.89-0.96,3.6-2.94,3.6h-4.14V2.847z M287.219,12.146
	c0.931,0,3.061,0.12,3.271,2.76c0.24,2.88,0.06,5.7,0.841,7.2h2.879c-0.42-1.35-0.72-4.74-0.75-5.67
	c-0.149-4.351-1.05-5.19-3.539-5.58v-0.061c2.549-0.449,3.959-2.399,3.959-4.949c0-2.7-1.35-5.4-5.189-5.4h-7.471v21.66h2.761v-9.96
	H287.219z"/>
<path fill="#778186" d="M299.459,15.656v0.63c0,2.94,1.86,3.87,3.631,3.87c2.189,0,3.869-0.93,3.869-3.51
	c0-4.8-9.72-4.26-9.72-10.771c0-3.84,2.729-5.88,6.36-5.88c3.96,0,6.18,1.92,6,6.33h-2.881c0.031-2.37-0.719-3.93-3.33-3.93
	c-1.649,0-3.329,0.84-3.329,3.18c0,4.771,9.72,4.08,9.72,10.95c0,4.561-3.15,6.03-6.72,6.03c-6.39,0.06-6.39-4.83-6.33-6.9H299.459z
	"/>
<path fill="#778186" d="M316.469,11.967h2.94c2.82,0,4.95,0.6,4.95,4.05c0,1.59-1.05,3.689-3.99,3.689h-3.9V11.967z M316.469,2.847
	h3.9c2.311,0,3.33,1.47,3.33,3.27c0,2.101-1.05,3.42-3.21,3.45h-4.021V2.847z M320.67,22.106c2.459,0,6.51-0.54,6.51-6.09
	c0-2.971-1.35-4.83-4.44-5.19v-0.149c2.79-0.631,3.72-2.431,3.72-5.131c0-0.42-0.119-1.71-0.869-2.88
	c-0.811-1.2-1.83-2.22-4.83-2.22h-7.051v21.66H320.67z"/>
<path fill="#778186" d="M331.079,0.446h2.76v13.86c0,4.74,1.44,5.939,4.05,5.939c2.61,0,4.051-1.199,4.051-5.939V0.446h2.76v13.74
	c0,6-2.221,8.37-6.811,8.37s-6.81-2.37-6.81-8.37V0.446z"/>
<path fill="#778186" d="M351.599,2.847h4.171c2.129,0,2.909,1.739,2.909,3.3c0,1.89-0.96,3.6-2.94,3.6h-4.14V2.847z M354.839,12.146
	c0.931,0,3.06,0.12,3.271,2.76c0.24,2.88,0.06,5.7,0.84,7.2h2.88c-0.421-1.35-0.72-4.74-0.75-5.67c-0.15-4.351-1.05-5.19-3.54-5.58
	v-0.061c2.55-0.449,3.96-2.399,3.96-4.949c0-2.7-1.351-5.4-5.19-5.4h-7.47v21.66h2.76v-9.96H354.839z"/>
<path fill="#778186" d="M375.359,6.236c0-2.55-1.051-3.93-3.84-3.93c-0.871,0-3.99,0.149-3.99,4.68v7.32
	c0,4.74,1.379,5.939,3.99,5.939c1.979,0,3.299-0.54,3.869-0.96v-6.479h-3.99v-2.4h6.75v10.53c-1.77,0.96-3.84,1.62-6.629,1.62
	c-4.591,0-6.811-2.37-6.811-8.37v-7.11c0-4.32,2.22-7.08,6.811-7.08c4.68,0,6.899,1.71,6.719,6.24H375.359z"/>
<path fill="#778186" d="M185.215,38.847h3.811c0.6,0,3.061,0.33,3.061,3.63c0,3.39-2.7,3.689-3.84,3.689h-3.031V38.847z
	 M185.215,58.106v-9.54h3.631c2.22,0,6.061-1.021,6.061-5.94c0-5.1-3.121-6.18-6.031-6.18h-6.42v21.66H185.215z"/>
<path fill="#778186" d="M200.875,38.847h4.17c2.131,0,2.91,1.739,2.91,3.3c0,1.89-0.959,3.6-2.939,3.6h-4.141V38.847z
	 M204.115,48.146c0.93,0,3.061,0.12,3.271,2.76c0.239,2.88,0.06,5.7,0.84,7.2h2.88c-0.42-1.35-0.72-4.74-0.75-5.67
	c-0.15-4.351-1.05-5.19-3.54-5.58v-0.061c2.55-0.449,3.96-2.399,3.96-4.949c0-2.7-1.35-5.4-5.189-5.4h-7.471v21.66h2.76v-9.96
	H204.115z"/>
<path fill="#778186" d="M220.976,56.246c-2.61,0-3.99-1.199-3.99-5.939v-7.32c0-4.53,3.12-4.68,3.99-4.68s3.99,0.149,3.99,4.68v7.32
	C224.966,55.047,223.586,56.246,220.976,56.246z M220.976,58.557c4.59,0,6.81-2.37,6.81-8.37v-7.11c0-4.32-2.22-7.08-6.81-7.08
	s-6.81,2.76-6.81,7.08v7.11C214.166,56.187,216.386,58.557,220.976,58.557z"/>
<path fill="#778186" d="M235.105,38.847h3.811c0.6,0,3.06,0.33,3.06,3.63c0,3.39-2.7,3.689-3.841,3.689h-3.029V38.847z
	 M235.105,58.106v-9.54h3.63c2.22,0,6.06-1.021,6.06-5.94c0-5.1-3.119-6.18-6.029-6.18h-6.42v21.66H235.105z"/>
<path fill="#778186" d="M248.065,58.106v-21.66h11.16v2.4h-8.4v6.96h7.8v2.399h-7.8v7.5h8.58v2.4H248.065z"/>
<path fill="#778186" d="M265.166,38.847h4.17c2.129,0,2.909,1.739,2.909,3.3c0,1.89-0.96,3.6-2.94,3.6h-4.139V38.847z
	 M268.405,48.146c0.931,0,3.06,0.12,3.271,2.76c0.24,2.88,0.06,5.7,0.84,7.2h2.88c-0.42-1.35-0.72-4.74-0.75-5.67
	c-0.149-4.351-1.05-5.19-3.54-5.58v-0.061c2.55-0.449,3.96-2.399,3.96-4.949c0-2.7-1.351-5.4-5.19-5.4h-7.47v21.66h2.761v-9.96
	H268.405z"/>
<path fill="#778186" d="M290.695,36.446v2.4h-5.7v19.26h-2.76v-19.26h-5.7v-2.4H290.695z"/>
<path fill="#778186" d="M302.455,36.446h2.791l-5.91,13.41v8.25h-2.761v-8.25l-5.819-13.41h3.09l4.229,10.47L302.455,36.446z"/>
<path fill="#778186" d="M322.945,42.416c0.029-1.229-0.061-2.46-0.631-3.149c-0.569-0.69-1.859-0.931-2.43-0.931
	c-2.279,0-3.18,1.38-3.27,1.681c-0.09,0.239-0.631,0.779-0.631,4.5v5.79c0,5.31,1.74,5.939,3.871,5.939c0.84,0,3.39-0.3,3.42-4.529
	h2.85c0.12,6.84-4.71,6.84-6.12,6.84c-2.7,0-6.84-0.181-6.84-8.58v-6.12c0-6.12,2.7-7.86,6.96-7.86c4.29,0,5.939,2.22,5.67,6.42
	H322.945z"/>
<path fill="#778186" d="M336.205,56.246c-2.61,0-3.99-1.199-3.99-5.939v-7.32c0-4.53,3.12-4.68,3.99-4.68
	c0.869,0,3.99,0.149,3.99,4.68v7.32C340.195,55.047,338.814,56.246,336.205,56.246z M336.205,58.557c4.59,0,6.811-2.37,6.811-8.37
	v-7.11c0-4.32-2.221-7.08-6.811-7.08s-6.811,2.76-6.811,7.08v7.11C329.395,56.187,331.615,58.557,336.205,58.557z"/>
<path fill="#778186" d="M349.824,58.106h-2.58v-21.66h4.471l5.46,18.18h0.06l5.521-18.18h4.56v21.66h-2.76v-19.26h-0.061
	l-6.06,19.26h-2.61l-5.939-19.26h-0.061V58.106z"/>
<path fill="#778186" d="M374.725,38.847h3.81c0.601,0,3.06,0.33,3.06,3.63c0,3.39-2.699,3.689-3.84,3.689h-3.029V38.847z
	 M374.725,58.106v-9.54h3.63c2.22,0,6.06-1.021,6.06-5.94c0-5.1-3.119-6.18-6.029-6.18h-6.42v21.66H374.725z"/>
<path fill="#778186" d="M396.24,50.546h-6.93l3.39-11.55h0.06L396.24,50.546z M384.21,58.106H387l1.62-5.16h8.37l1.561,5.16h3.09
	l-7.051-21.66h-3.51L384.21,58.106z"/>
<path fill="#778186" d="M418.92,36.446v21.66h-3.779l-8.551-18.78h-0.061v18.78h-2.459v-21.66h3.9l8.43,18.54h0.06v-18.54H418.92z"
	/>
<path fill="#778186" d="M432.84,36.446h2.79l-5.91,13.41v8.25h-2.76v-8.25l-5.82-13.41h3.09l4.23,10.47L432.84,36.446z"/>
</svg>
